<svg width="33" height="33" viewBox="0 0 33 33" fill="none" xmlns="http://www.w3.org/2000/svg">
<path d="M25.983 15.9024V16.569C25.983 16.9372 25.6846 17.2357 25.3164 17.2357H17.6497V24.9024C17.6497 25.2705 17.3512 25.569 16.983 25.569H16.3164C15.9482 25.569 15.6497 25.2705 15.6497 24.9024V17.2357H7.98308C7.61489 17.2357 7.31641 16.9372 7.31641 16.569V15.9024C7.31641 15.5342 7.61489 15.2357 7.98308 15.2357H15.6497V7.569C15.6497 7.20081 15.9482 6.90234 16.3164 6.90234H16.983C17.3512 6.90234 17.6497 7.20081 17.6497 7.569V15.2357H25.3164C25.6846 15.2357 25.983 15.5342 25.983 15.9024Z" fill="black"/>
</svg>
